Urbanist-ThinItalic.ufo
<glyph name="parenleft" format="2">
  <advance width="554"/>
  <unicode hex="0028"/>
  <outline>
    <contour>
      <point x="309" y="-111" type="curve"/>
      <point x="367" y="-113" type="line"/>
      <point x="208" y="85"/>
      <point x="168" y="326"/>
      <point x="200" y="641" type="curve"/>
      <point x="256" y="952"/>
      <point x="360" y="1187"/>
      <point x="581" y="1399" type="curve"/>
      <point x="519" y="1401" type="line"/>
      <point x="299" y="1227"/>
      <point x="181" y="934"/>
      <point x="141" y="647" type="curve" smooth="yes"/>
      <point x="101" y="366"/>
      <point x="136" y="67"/>
    </contour>
  </outline>
</glyph>
<glyph name="less" format="2">
  <advance width="1160"/>
  <unicode hex="003C"/>
  <outline>
    <contour>
      <point x="1048" y="268" type="line"/>
      <point x="1056" y="330" type="line"/>
      <point x="148" y="600" type="line"/>
      <point x="1132" y="868" type="line"/>
      <point x="1141" y="932" type="line"/>
      <point x="100" y="646" type="line"/>
      <point x="87" y="552" type="line"/>
    </contour>
  </outline>
</glyph>
<glyph name="question" format="2">
  <advance width="922"/>
  <unicode hex="003F"/>
  <outline>
    <contour>
      <point x="427" y="524" type="curve"/>
      <point x="487" y="520" type="line"/>
      <point x="500" y="615"/>
      <point x="564" y="700"/>
      <point x="655" y="744" type="curve" smooth="yes"/>
      <point x="777" y="807"/>
      <point x="862" y="928"/>
      <point x="881" y="1063" type="curve" smooth="yes"/>
      <point x="909" y="1264"/>
      <point x="769" y="1428"/>
      <point x="567" y="1428" type="curve" smooth="yes"/>
      <point x="371" y="1428"/>
      <point x="188" y="1268"/>
      <point x="160" y="1068" type="curve"/>
      <point x="219" y="1064" type="line"/>
      <point x="243" y="1232"/>
      <point x="398" y="1368"/>
      <point x="565" y="1368" type="curve" smooth="yes"/>
      <point x="730" y="1368"/>
      <point x="845" y="1236"/>
      <point x="822" y="1069" type="curve" smooth="yes"/>
      <point x="806" y="954"/>
      <point x="732" y="851"/>
      <point x="629" y="802" type="curve" smooth="yes"/>
      <point x="519" y="744"/>
      <point x="444" y="641"/>
    </contour>
    <contour>
      <point x="369" y="-26" type="curve" smooth="yes"/>
      <point x="394" y="-26"/>
      <point x="415" y="-6"/>
      <point x="418" y="17" type="curve" smooth="yes"/>
      <point x="422" y="42"/>
      <point x="403" y="64"/>
      <point x="375" y="64" type="curve" smooth="yes"/>
      <point x="353" y="64"/>
      <point x="332" y="46"/>
      <point x="329" y="23" type="curve" smooth="yes"/>
      <point x="325" y="-2"/>
      <point x="344" y="-26"/>
    </contour>
  </outline>
</glyph>
<glyph name="at" format="2">
  <advance width="1651"/>
  <unicode hex="0040"/>
  <outline>
    <contour>
      <point x="738" y="-136" type="curve"/>
      <point x="743" y="-76" type="line"/>
      <point x="365" y="-76"/>
      <point x="94" y="171"/>
      <point x="147" y="548" type="curve" smooth="yes"/>
      <point x="200" y="929"/>
      <point x="555" y="1236"/>
      <point x="933" y="1236" type="curve" smooth="yes"/>
      <point x="1309" y="1236"/>
      <point x="1572" y="931"/>
      <point x="1519" y="554" type="curve" smooth="yes"/>
      <point x="1493" y="375"/>
      <point x="1402" y="189"/>
      <point x="1259" y="189" type="curve" smooth="yes"/>
      <point x="1186" y="189"/>
      <point x="1115" y="248"/>
      <point x="1125" y="323" type="curve" smooth="yes"/>
      <point x="1210" y="928" type="line"/>
      <point x="1150" y="928" type="line"/>
      <point x="1127" y="766" type="line"/>
      <point x="1085" y="875"/>
      <point x="990" y="948"/>
      <point x="849" y="948" type="curve" smooth="yes"/>
      <point x="631" y="948"/>
      <point x="430" y="772"/>
      <point x="400" y="554" type="curve" smooth="yes"/>
      <point x="368" y="333"/>
      <point x="523" y="153"/>
      <point x="744" y="153" type="curve" smooth="yes"/>
      <point x="882" y="153"/>
      <point x="995" y="224"/>
      <point x="1067" y="334" type="curve"/>
      <point x="1050" y="217"/>
      <point x="1146" y="129"/>
      <point x="1257" y="129" type="curve" smooth="yes"/>
      <point x="1423" y="129"/>
      <point x="1551" y="359"/>
      <point x="1578" y="548" type="curve" smooth="yes"/>
      <point x="1635" y="958"/>
      <point x="1352" y="1296"/>
      <point x="935" y="1296" type="curve" smooth="yes"/>
      <point x="524" y="1296"/>
      <point x="145" y="964"/>
      <point x="88" y="554" type="curve" smooth="yes"/>
      <point x="30" y="143"/>
      <point x="327" y="-136"/>
    </contour>
    <contour>
      <point x="745" y="213" type="curve" smooth="yes"/>
      <point x="565" y="213"/>
      <point x="432" y="358"/>
      <point x="459" y="548" type="curve" smooth="yes"/>
      <point x="485" y="736"/>
      <point x="657" y="888"/>
      <point x="847" y="888" type="curve" smooth="yes"/>
      <point x="1048" y="888"/>
      <point x="1116" y="734"/>
      <point x="1093" y="572" type="curve" smooth="yes"/>
      <point x="1068" y="397"/>
      <point x="935" y="213"/>
    </contour>
  </outline>
</glyph>
<glyph name="A" format="2">
  <advance width="1272"/>
  <unicode hex="0041"/>
  <outline>
    <contour>
      <point x="716" y="1400" type="line"/>
      <point x="9" y="0" type="line"/>
      <point x="74" y="0" type="line"/>
      <point x="246" y="340" type="line"/>
      <point x="982" y="340" type="line"/>
      <point x="1058" y="0" type="line"/>
      <point x="1121" y="0" type="line"/>
      <point x="808" y="1400" type="line"/>
    </contour>
    <contour>
      <point x="276" y="400" type="line"/>
      <point x="756" y="1350" type="line"/>
      <point x="968" y="400" type="line"/>
    </contour>
  </outline>
</glyph>
<glyph name="F" format="2">
  <advance width="952"/>
  <unicode hex="0046"/>
  <outline>
    <contour>
      <point x="50" y="0" type="line"/>
      <point x="110" y="0" type="line"/>
      <point x="211" y="720" type="line"/>
      <point x="867" y="720" type="line"/>
      <point x="875" y="780" type="line"/>
      <point x="219" y="780" type="line"/>
      <point x="298" y="1340" type="line"/>
      <point x="1050" y="1340" type="line"/>
      <point x="1058" y="1400" type="line"/>
      <point x="246" y="1400" type="line"/>
    </contour>
  </outline>
</glyph>
<glyph name="G" format="2">
  <advance width="1496"/>
  <unicode hex="0047"/>
  <outline>
    <contour>
      <point x="679" y="-26" type="curve" smooth="yes"/>
      <point x="1038" y="-26"/>
      <point x="1380" y="270"/>
      <point x="1456" y="640" type="curve"/>
      <point x="916" y="642" type="line"/>
      <point x="908" y="582" type="line"/>
      <point x="1380" y="584" type="line"/>
      <point x="1291" y="284"/>
      <point x="997" y="34"/>
      <point x="681" y="34" type="curve" smooth="yes"/>
      <point x="335" y="34"/>
      <point x="97" y="334"/>
      <point x="148" y="697" type="curve" smooth="yes"/>
      <point x="198" y="1056"/>
      <point x="521" y="1366"/>
      <point x="875" y="1366" type="curve" smooth="yes"/>
      <point x="1063" y="1366"/>
      <point x="1236" y="1273"/>
      <point x="1333" y="1109" type="curve"/>
      <point x="1389" y="1137" type="line"/>
      <point x="1287" y="1311"/>
      <point x="1102" y="1426"/>
      <point x="877" y="1426" type="curve" smooth="yes"/>
      <point x="496" y="1426"/>
      <point x="145" y="1102"/>
      <point x="89" y="703" type="curve" smooth="yes"/>
      <point x="32" y="302"/>
      <point x="296" y="-26"/>
    </contour>
  </outline>
</glyph>
<glyph name="H" format="2">
  <advance width="1214"/>
  <unicode hex="0048"/>
  <outline>
    <contour>
      <point x="1160" y="1400" type="line"/>
      <point x="1073" y="780" type="line"/>
      <point x="219" y="780" type="line"/>
      <point x="306" y="1400" type="line"/>
      <point x="246" y="1400" type="line"/>
      <point x="50" y="0" type="line"/>
      <point x="110" y="0" type="line"/>
      <point x="211" y="720" type="line"/>
      <point x="1065" y="720" type="line"/>
      <point x="964" y="0" type="line"/>
      <point x="1024" y="0" type="line"/>
      <point x="1220" y="1400" type="line"/>
    </contour>
  </outline>
</glyph>
<glyph name="P" format="2">
  <advance width="1000"/>
  <unicode hex="0050"/>
  <outline>
    <contour>
      <point x="50" y="0" type="line"/>
      <point x="110" y="0" type="line"/>
      <point x="194" y="600" type="line"/>
      <point x="544" y="600" type="line" smooth="yes"/>
      <point x="758" y="600"/>
      <point x="958" y="768"/>
      <point x="990" y="997" type="curve" smooth="yes"/>
      <point x="1022" y="1226"/>
      <point x="873" y="1400"/>
      <point x="653" y="1400" type="curve" smooth="yes"/>
      <point x="246" y="1400" type="line"/>
    </contour>
    <contour>
      <point x="202" y="660" type="line"/>
      <point x="298" y="1340" type="line"/>
      <point x="648" y="1340" type="line" smooth="yes"/>
      <point x="830" y="1340"/>
      <point x="958" y="1198"/>
      <point x="931" y="1003" type="curve" smooth="yes"/>
      <point x="903" y="806"/>
      <point x="731" y="660"/>
      <point x="549" y="660" type="curve" smooth="yes"/>
    </contour>
  </outline>
</glyph>
<glyph name="W" format="2">
  <advance width="1712"/>
  <unicode hex="0057"/>
  <outline>
    <contour>
      <point x="388" y="0" type="line"/>
      <point x="466" y="0" type="line"/>
      <point x="962" y="1250" type="line"/>
      <point x="1106" y="0" type="line"/>
      <point x="1186" y="0" type="line"/>
      <point x="1739" y="1400" type="line"/>
      <point x="1676" y="1400" type="line"/>
      <point x="1157" y="86" type="line"/>
      <point x="1006" y="1400" type="line"/>
      <point x="958" y="1400" type="line"/>
      <point x="439" y="86" type="line"/>
      <point x="288" y="1400" type="line"/>
      <point x="227" y="1400" type="line"/>
    </contour>
  </outline>
</glyph>
<glyph name="backslash" format="2">
  <advance width="626"/>
  <unicode hex="005C"/>
  <outline>
    <contour>
      <point x="400" y="-112" type="line"/>
      <point x="460" y="-112" type="line"/>
      <point x="266" y="1400" type="line"/>
      <point x="207" y="1400" type="line"/>
    </contour>
  </outline>
</glyph>
<glyph name="l" format="2">
  <advance width="360"/>
  <unicode hex="006C"/>
  <outline>
    <contour>
      <point x="80" y="2" type="line"/>
      <point x="140" y="2" type="line"/>
      <point x="351" y="1500" type="line"/>
      <point x="291" y="1500" type="line"/>
    </contour>
  </outline>
</glyph>
<glyph name="p" format="2">
  <advance width="1194"/>
  <unicode hex="0070"/>
  <outline>
    <contour>
      <point x="39" y="-500" type="line"/>
      <point x="143" y="234" type="line"/>
      <point x="193" y="78"/>
      <point x="321" y="-28"/>
      <point x="517" y="-28" type="curve" smooth="yes"/>
      <point x="805" y="-28"/>
      <point x="1073" y="206"/>
      <point x="1114" y="497" type="curve" smooth="yes"/>
      <point x="1155" y="788"/>
      <point x="950" y="1026"/>
      <point x="659" y="1026" type="curve" smooth="yes"/>
      <point x="466" y="1026"/>
      <point x="311" y="924"/>
      <point x="217" y="768" type="curve"/>
      <point x="250" y="1000" type="line"/>
      <point x="190" y="1000" type="line"/>
      <point x="-21" y="-500" type="line"/>
    </contour>
    <contour>
      <point x="657" y="966" type="curve" smooth="yes"/>
      <point x="913" y="966"/>
      <point x="1090" y="758"/>
      <point x="1054" y="503" type="curve" smooth="yes"/>
      <point x="1017" y="238"/>
      <point x="771" y="32"/>
      <point x="519" y="32" type="curve" smooth="yes"/>
      <point x="263" y="32"/>
      <point x="148" y="242"/>
      <point x="184" y="497" type="curve" smooth="yes"/>
      <point x="220" y="758"/>
      <point x="401" y="966"/>
    </contour>
  </outline>
</glyph>
<glyph name="bar" format="2">
  <advance width="340"/>
  <unicode hex="007C"/>
  <outline>
    <contour>
      <point x="266" y="1400" type="line"/>
      <point x="27" y="-302" type="line"/>
      <point x="87" y="-302" type="line"/>
      <point x="326" y="1400" type="line"/>
    </contour>
  </outline>
</glyph>
<glyph name="sterling" format="2">
  <advance width="1134"/>
  <unicode hex="00A3"/>
  <outline>
    <contour>
      <point x="34" y="0" type="line"/>
      <point x="984" y="0" type="line"/>
      <point x="992" y="60" type="line"/>
      <point x="234" y="59" type="line"/>
      <point x="327" y="95"/>
      <point x="430" y="190"/>
      <point x="445" y="297" type="curve" smooth="yes"/>
      <point x="499" y="677"/>
      <point x="147" y="551"/>
      <point x="201" y="937" type="curve" smooth="yes"/>
      <point x="234" y="1172"/>
      <point x="455" y="1366"/>
      <point x="691" y="1366" type="curve" smooth="yes"/>
      <point x="925" y="1366"/>
      <point x="1089" y="1176"/>
      <point x="1056" y="942" type="curve"/>
      <point x="1116" y="938" type="line"/>
      <point x="1153" y="1206"/>
      <point x="964" y="1426"/>
      <point x="693" y="1426" type="curve" smooth="yes"/>
      <point x="426" y="1426"/>
      <point x="180" y="1210"/>
      <point x="142" y="943" type="curve" smooth="yes"/>
      <point x="87" y="549"/>
      <point x="433" y="636"/>
      <point x="386" y="303" type="curve" smooth="yes"/>
      <point x="366" y="158"/>
      <point x="208" y="60"/>
      <point x="40" y="60" type="curve"/>
    </contour>
    <contour>
      <point x="97" y="452" type="line"/>
      <point x="833" y="452" type="line"/>
      <point x="842" y="512" type="line"/>
      <point x="106" y="512" type="line"/>
    </contour>
  </outline>
</glyph>
<glyph name="twosuperior" format="2">
  <advance width="670"/>
  <unicode hex="00B2"/>
  <outline>
    <contour>
      <point x="141" y="818" type="line"/>
      <point x="571" y="818" type="line"/>
      <point x="581" y="890" type="line"/>
      <point x="274" y="889" type="line"/>
      <point x="409" y="973"/>
      <point x="616" y="1142"/>
      <point x="633" y="1261" type="curve" smooth="yes"/>
      <point x="650" y="1380"/>
      <point x="564" y="1468"/>
      <point x="445" y="1468" type="curve" smooth="yes"/>
      <point x="326" y="1468"/>
      <point x="220" y="1384"/>
      <point x="204" y="1266" type="curve"/>
      <point x="275" y="1262" type="line"/>
      <point x="286" y="1341"/>
      <point x="361" y="1396"/>
      <point x="441" y="1396" type="curve" smooth="yes"/>
      <point x="519" y="1396"/>
      <point x="573" y="1345"/>
      <point x="562" y="1267" type="curve" smooth="yes"/>
      <point x="545" y="1151"/>
      <point x="257" y="958"/>
      <point x="150" y="893" type="curve"/>
    </contour>
  </outline>
</glyph>
<glyph name="Thorn" format="2">
  <advance width="1000"/>
  <unicode hex="00DE"/>
  <outline>
    <contour>
      <point x="50" y="0" type="line"/>
      <point x="110" y="0" type="line"/>
      <point x="152" y="300" type="line"/>
      <point x="502" y="300" type="line" smooth="yes"/>
      <point x="716" y="300"/>
      <point x="916" y="468"/>
      <point x="948" y="697" type="curve" smooth="yes"/>
      <point x="980" y="926"/>
      <point x="831" y="1100"/>
      <point x="611" y="1100" type="curve" smooth="yes"/>
      <point x="264" y="1100" type="line"/>
      <point x="306" y="1400" type="line"/>
      <point x="246" y="1400" type="line"/>
    </contour>
    <contour>
      <point x="160" y="360" type="line"/>
      <point x="256" y="1040" type="line"/>
      <point x="606" y="1040" type="line" smooth="yes"/>
      <point x="788" y="1040"/>
      <point x="916" y="898"/>
      <point x="889" y="703" type="curve" smooth="yes"/>
      <point x="861" y="506"/>
      <point x="689" y="360"/>
      <point x="507" y="360" type="curve" smooth="yes"/>
    </contour>
  </outline>
</glyph>
<glyph name="germandbls" format="2">
  <advance width="1010"/>
  <unicode hex="00DF"/>
  <outline>
    <contour>
      <point x="50" y="0" type="line"/>
      <point x="110" y="0" type="line"/>
      <point x="249" y="992" type="line" smooth="yes"/>
      <point x="276" y="1182"/>
      <point x="453" y="1338"/>
      <point x="645" y="1338" type="curve" smooth="yes"/>
      <point x="801" y="1338"/>
      <point x="911" y="1202"/>
      <point x="887" y="1033" type="curve" smooth="yes"/>
      <point x="863" y="862"/>
      <point x="712" y="722"/>
      <point x="554" y="722" type="curve" smooth="yes"/>
      <point x="527" y="722" type="line"/>
      <point x="519" y="662" type="line"/>
      <point x="614" y="662" type="line" smooth="yes"/>
      <point x="780" y="662"/>
      <point x="894" y="530"/>
      <point x="871" y="365" type="curve" smooth="yes"/>
      <point x="848" y="198"/>
      <point x="692" y="60"/>
      <point x="526" y="60" type="curve" smooth="yes"/>
      <point x="435" y="60" type="line"/>
      <point x="446" y="0" type="line"/>
      <point x="521" y="0" type="line" smooth="yes"/>
      <point x="719" y="0"/>
      <point x="902" y="160"/>
      <point x="930" y="359" type="curve" smooth="yes"/>
      <point x="953" y="524"/>
      <point x="863" y="664"/>
      <point x="721" y="707" type="curve"/>
      <point x="837" y="769"/>
      <point x="927" y="890"/>
      <point x="946" y="1027" type="curve" smooth="yes"/>
      <point x="975" y="1230"/>
      <point x="841" y="1398"/>
      <point x="647" y="1398" type="curve" smooth="yes"/>
      <point x="425" y="1398"/>
      <point x="221" y="1218"/>
      <point x="190" y="996" type="curve" smooth="yes"/>
    </contour>
  </outline>
</glyph>
<glyph name="icircumflex" format="2">
  <advance width="282"/>
  <unicode hex="00EE"/>
  <outline>
    <contour>
      <point x="181" y="1000" type="line"/>
      <point x="41" y="0" type="line"/>
      <point x="101" y="0" type="line"/>
      <point x="241" y="1000" type="line"/>
    </contour>
    <component base="circumflexcomb" xOffset="-379"/>
  </outline>
</glyph>
<glyph name="eth" format="2">
  <advance width="1124"/>
  <unicode hex="00F0"/>
  <outline>
    <contour>
      <point x="509" y="1070" type="line"/>
      <point x="1007" y="1500" type="line"/>
      <point x="969" y="1542" type="line"/>
      <point x="470" y="1114" type="line"/>
    </contour>
    <component base="partialdiff"/>
  </outline>
</glyph>
<glyph name="divide" format="2">
  <advance width="1160"/>
  <unicode hex="00F7"/>
  <outline>
    <contour>
      <point x="90" y="570" type="line"/>
      <point x="1090" y="570" type="line"/>
      <point x="1098" y="630" type="line"/>
      <point x="98" y="630" type="line"/>
    </contour>
    <contour>
      <point x="653" y="1044" type="curve"/>
      <point x="607" y="1044"/>
      <point x="571" y="1004"/>
      <point x="565" y="965" type="curve"/>
      <point x="559" y="920"/>
      <point x="587" y="882"/>
      <point x="637" y="882" type="curve"/>
      <point x="677" y="882"/>
      <point x="717" y="916"/>
      <point x="722" y="959" type="curve"/>
      <point x="728" y="1000"/>
      <point x="697" y="1044"/>
    </contour>
    <contour>
      <point x="551" y="316" type="curve"/>
      <point x="504" y="316"/>
      <point x="469" y="278"/>
      <point x="463" y="237" type="curve"/>
      <point x="457" y="192"/>
      <point x="485" y="156"/>
      <point x="535" y="156" type="curve"/>
      <point x="575" y="156"/>
      <point x="618" y="188"/>
      <point x="624" y="231" type="curve"/>
      <point x="630" y="274"/>
      <point x="594" y="316"/>
    </contour>
  </outline>
</glyph>
<glyph name="OE" format="2">
  <advance width="2206"/>
  <unicode hex="0152"/>
  <outline>
    <contour>
      <point x="699" y="-26" type="curve" smooth="yes"/>
      <point x="978" y="-26"/>
      <point x="1244" y="150"/>
      <point x="1387" y="402" type="curve"/>
      <point x="1330" y="0" type="line"/>
      <point x="2036" y="0" type="line"/>
      <point x="2044" y="60" type="line"/>
      <point x="1398" y="60" type="line"/>
      <point x="1484" y="670" type="line"/>
      <point x="2034" y="670" type="line"/>
      <point x="2042" y="730" type="line"/>
      <point x="1492" y="730" type="line"/>
      <point x="1578" y="1340" type="line"/>
      <point x="2224" y="1340" type="line"/>
      <point x="2232" y="1400" type="line"/>
      <point x="1526" y="1400" type="line"/>
      <point x="1469" y="994" type="line"/>
      <point x="1396" y="1246"/>
      <point x="1178" y="1426"/>
      <point x="897" y="1426" type="curve" smooth="yes"/>
      <point x="518" y="1426"/>
      <point x="165" y="1102"/>
      <point x="109" y="703" type="curve" smooth="yes"/>
      <point x="52" y="302"/>
      <point x="318" y="-26"/>
    </contour>
    <contour>
      <point x="701" y="34" type="curve" smooth="yes"/>
      <point x="355" y="34"/>
      <point x="116" y="332"/>
      <point x="168" y="697" type="curve" smooth="yes"/>
      <point x="218" y="1058"/>
      <point x="541" y="1366"/>
      <point x="895" y="1366" type="curve" smooth="yes"/>
      <point x="1241" y="1366"/>
      <point x="1480" y="1066"/>
      <point x="1429" y="703" type="curve" smooth="yes"/>
      <point x="1378" y="342"/>
      <point x="1055" y="34"/>
    </contour>
  </outline>
</glyph>
<glyph name="breve" format="2">
  <advance width="1144"/>
  <unicode hex="02D8"/>
  <outline>
    <contour>
      <point x="664" y="1128" type="curve" smooth="yes"/>
      <point x="838" y="1128"/>
      <point x="1012" y="1270"/>
      <point x="1039" y="1458" type="curve"/>
      <point x="979" y="1462" type="line"/>
      <point x="958" y="1312"/>
      <point x="815" y="1188"/>
      <point x="665" y="1188" type="curve" smooth="yes"/>
      <point x="525" y="1188"/>
      <point x="412" y="1300"/>
      <point x="435" y="1458" type="curve"/>
      <point x="375" y="1462" type="line"/>
      <point x="350" y="1280"/>
      <point x="480" y="1128"/>
    </contour>
  </outline>
</glyph>
<glyph name="ogonek" format="2">
  <advance width="1064"/>
  <unicode hex="02DB"/>
  <outline>
    <contour>
      <point x="488" y="-352" type="curve" smooth="yes"/>
      <point x="516" y="-352" type="line"/>
      <point x="525" y="-292" type="line"/>
      <point x="493" y="-292" type="line" smooth="yes"/>
      <point x="337" y="-292"/>
      <point x="228" y="-166"/>
      <point x="250" y="-10" type="curve" smooth="yes"/>
      <point x="260" y="62" type="line"/>
      <point x="200" y="62" type="line"/>
      <point x="191" y="-6" type="line" smooth="yes"/>
      <point x="164" y="-196"/>
      <point x="298" y="-352"/>
    </contour>
  </outline>
</glyph>
<glyph name="circumflexcomb" format="2">
  <unicode hex="0302"/>
  <outline>
    <contour>
      <point x="628" y="1400" type="line"/>
      <point x="493" y="1166" type="line"/>
      <point x="544" y="1166" type="line"/>
      <point x="640" y="1334" type="line"/>
      <point x="686" y="1166" type="line"/>
      <point x="735" y="1166" type="line"/>
      <point x="668" y="1400" type="line"/>
    </contour>
  </outline>
</glyph>
<glyph name="quoteright" format="2">
  <advance width="222"/>
  <unicode hex="2019"/>
  <unicode hex="2032"/>
  <outline>
    <contour>
      <point x="93" y="878" type="line"/>
      <point x="133" y="878" type="line"/>
      <point x="289" y="1400" type="line"/>
      <point x="228" y="1400" type="line"/>
    </contour>
  </outline>
</glyph>
<glyph name="daggerdbl" format="2">
  <advance width="736"/>
  <unicode hex="2021"/>
  <outline>
    <contour>
      <point x="125" y="822" type="line"/>
      <point x="383" y="822" type="line"/>
      <point x="346" y="560" type="line"/>
      <point x="406" y="560" type="line"/>
      <point x="443" y="822" type="line"/>
      <point x="701" y="822" type="line"/>
      <point x="709" y="880" type="line"/>
      <point x="451" y="880" type="line"/>
      <point x="488" y="1140" type="line"/>
      <point x="746" y="1140" type="line"/>
      <point x="754" y="1200" type="line"/>
      <point x="496" y="1200" type="line"/>
      <point x="539" y="1500" type="line"/>
      <point x="479" y="1500" type="line"/>
      <point x="436" y="1200" type="line"/>
      <point x="178" y="1200" type="line"/>
      <point x="170" y="1140" type="line"/>
      <point x="428" y="1140" type="line"/>
      <point x="391" y="880" type="line"/>
      <point x="133" y="880" type="line"/>
    </contour>
  </outline>
</glyph>
<glyph name="guilsinglright" format="2">
  <advance width="600"/>
  <unicode hex="203A"/>
  <outline>
    <contour>
      <point x="66" y="261" type="line"/>
      <point x="147" y="261" type="line"/>
      <point x="494" y="601" type="line"/>
      <point x="241" y="939" type="line"/>
      <point x="162" y="939" type="line"/>
      <point x="414" y="601" type="line"/>
    </contour>
  </outline>
</glyph>
<glyph name="sixsuperior" format="2">
  <advance width="706"/>
  <unicode hex="2076"/>
  <outline>
    <contour>
      <point x="374" y="798" type="curve" smooth="yes"/>
      <point x="495" y="798"/>
      <point x="615" y="880"/>
      <point x="634" y="1016" type="curve" smooth="yes"/>
      <point x="655" y="1159"/>
      <point x="533" y="1283"/>
      <point x="377" y="1245" type="curve"/>
      <point x="524" y="1446" type="line"/>
      <point x="438" y="1447" type="line"/>
      <point x="224" y="1155"/>
      <point x="180" y="1100"/>
      <point x="169" y="1022" type="curve" smooth="yes"/>
      <point x="152" y="899"/>
      <point x="236" y="798"/>
    </contour>
    <contour>
      <point x="378" y="870" type="curve" smooth="yes"/>
      <point x="290" y="870"/>
      <point x="228" y="928"/>
      <point x="240" y="1014" type="curve" smooth="yes"/>
      <point x="253" y="1106"/>
      <point x="337" y="1180"/>
      <point x="428" y="1180" type="curve" smooth="yes"/>
      <point x="505" y="1180"/>
      <point x="577" y="1120"/>
      <point x="563" y="1022" type="curve" smooth="yes"/>
      <point x="551" y="932"/>
      <point x="468" y="870"/>
    </contour>
  </outline>
</glyph>
<glyph name="oneinferior" format="2">
  <advance width="401"/>
  <unicode hex="2081"/>
  <outline>
    <contour>
      <point x="115" y="0" type="line"/>
      <point x="187" y="0" type="line"/>
      <point x="275" y="631" type="line"/>
      <point x="124" y="631" type="line"/>
      <point x="104" y="559" type="line"/>
      <point x="193" y="559" type="line"/>
    </contour>
  </outline>
</glyph>
<glyph name="rightArrow" format="2">
  <advance width="1342"/>
  <unicode hex="2192"/>
  <outline>
    <contour>
      <point x="765" y="284" type="line"/>
      <point x="1297" y="750" type="line"/>
      <point x="893" y="1216" type="line"/>
      <point x="847" y="1174" type="line"/>
      <point x="1186" y="780" type="line"/>
      <point x="119" y="780" type="line"/>
      <point x="111" y="720" type="line"/>
      <point x="1176" y="720" type="line"/>
      <point x="728" y="326" type="line"/>
    </contour>
  </outline>
</glyph>
<glyph name="downArrow" format="2">
  <advance width="1094"/>
  <unicode hex="2193"/>
  <outline>
    <contour>
      <point x="499" y="160" type="line"/>
      <point x="1032" y="626" type="line"/>
      <point x="994" y="668" type="line"/>
      <point x="544" y="274" type="line"/>
      <point x="694" y="1340" type="line"/>
      <point x="634" y="1340" type="line"/>
      <point x="484" y="274" type="line"/>
      <point x="144" y="668" type="line"/>
      <point x="98" y="626" type="line"/>
    </contour>
  </outline>
</glyph>
<glyph name="northWestArrow" format="2">
  <advance width="1018"/>
  <unicode hex="2196"/>
  <outline>
    <contour>
      <point x="872" y="322" type="line"/>
      <point x="919" y="364" type="line"/>
      <point x="270" y="1118" type="line"/>
      <point x="827" y="1118" type="line"/>
      <point x="835" y="1178" type="line"/>
      <point x="175" y="1178" type="line"/>
      <point x="83" y="518" type="line"/>
      <point x="143" y="518" type="line"/>
      <point x="222" y="1076" type="line"/>
    </contour>
  </outline>
</glyph>
<glyph name="northEastArrow" format="2">
  <advance width="1016"/>
  <unicode hex="2197"/>
  <outline>
    <contour>
      <point x="98" y="322" type="line"/>
      <point x="958" y="1076" type="line"/>
      <point x="879" y="518" type="line"/>
      <point x="939" y="518" type="line"/>
      <point x="1031" y="1178" type="line"/>
      <point x="371" y="1178" type="line"/>
      <point x="363" y="1118" type="line"/>
      <point x="920" y="1118" type="line"/>
      <point x="61" y="364" type="line"/>
    </contour>
  </outline>
</glyph>
<glyph name="southWestArrow" format="2">
  <advance width="1016"/>
  <unicode hex="2199"/>
  <outline>
    <contour>
      <point x="55" y="322" type="line"/>
      <point x="715" y="322" type="line"/>
      <point x="723" y="382" type="line"/>
      <point x="166" y="382" type="line"/>
      <point x="1025" y="1136" type="line"/>
      <point x="988" y="1178" type="line"/>
      <point x="129" y="424" type="line"/>
      <point x="208" y="982" type="line"/>
      <point x="148" y="982" type="line"/>
    </contour>
  </outline>
</glyph>
<glyph name="integral" format="2">
  <advance width="727"/>
  <unicode hex="222B"/>
  <outline>
    <contour>
      <point x="128" y="-26" type="curve"/>
      <point x="211" y="-24"/>
      <point x="265" y="14"/>
      <point x="284" y="92" type="curve"/>
      <point x="558" y="1300" type="line"/>
      <point x="564" y="1332"/>
      <point x="603" y="1372"/>
      <point x="648" y="1366" type="curve"/>
      <point x="684" y="1364"/>
      <point x="708" y="1332"/>
      <point x="700" y="1292" type="curve"/>
      <point x="757" y="1282" type="line"/>
      <point x="773" y="1356"/>
      <point x="727" y="1420"/>
      <point x="654" y="1426" type="curve"/>
      <point x="588" y="1430"/>
      <point x="520" y="1388"/>
      <point x="499" y="1310" type="curve"/>
      <point x="224" y="100" type="line"/>
      <point x="213" y="60"/>
      <point x="175" y="30"/>
      <point x="136" y="33" type="curve"/>
      <point x="97" y="42"/>
      <point x="75" y="70"/>
      <point x="86" y="108" type="curve"/>
      <point x="27" y="118" type="line"/>
      <point x="7" y="44"/>
      <point x="59" y="-24"/>
    </contour>
  </outline>
</glyph>
<glyph name="notequal" format="2">
  <advance width="1160"/>
  <unicode hex="2260"/>
  <outline>
    <contour>
      <point x="876" y="1182" type="line"/>
      <point x="813" y="1182" type="line"/>
      <point x="659" y="822" type="line"/>
      <point x="125" y="822" type="line"/>
      <point x="117" y="762" type="line"/>
      <point x="632" y="762" type="line"/>
      <point x="491" y="438" type="line"/>
      <point x="71" y="438" type="line"/>
      <point x="63" y="378" type="line"/>
      <point x="466" y="378" type="line"/>
      <point x="310" y="18" type="line"/>
      <point x="373" y="18" type="line"/>
      <point x="529" y="378" type="line"/>
      <point x="1063" y="378" type="line"/>
      <point x="1071" y="438" type="line"/>
      <point x="556" y="438" type="line"/>
      <point x="695" y="762" type="line"/>
      <point x="1117" y="762" type="line"/>
      <point x="1125" y="822" type="line"/>
      <point x="722" y="822" type="line"/>
    </contour>
  </outline>
</glyph>
<glyph name="lozenge" format="2">
  <advance width="696"/>
  <unicode hex="25CA"/>
  <outline>
    <contour>
      <point x="258" y="0" type="line"/>
      <point x="298" y="0" type="line"/>
      <point x="664" y="702" type="line"/>
      <point x="496" y="1400" type="line"/>
      <point x="452" y="1400" type="line"/>
      <point x="88" y="702" type="line"/>
    </contour>
    <contour>
      <point x="295" y="134" type="line"/>
      <point x="152" y="702" type="line"/>
      <point x="457" y="1270" type="line"/>
      <point x="602" y="702" type="line"/>
    </contour>
  </outline>
</glyph>
